<?xml version="1.0" encoding="utf-8"?>
<!-- Generator: Adobe Illustrator 21.0.0, SVG Export Plug-In . SVG Version: 6.00 Build 0)  -->
<svg version="1.1" id="Calque_1" xmlns="http://www.w3.org/2000/svg" xmlns:xlink="http://www.w3.org/1999/xlink" x="0px" y="0px"
	 viewBox="0 0 249.3 235.3" style="enable-background:new 0 0 249.3 235.3;" xml:space="preserve">
<style type="text/css">
	.st0{fill:#FFFFFF;}
</style>
<path class="st0" d="M178.8,129c-39.8,1.4-44.4,49.7-5,57.7c-19.8-11.7-21-38.9,4.7-40.2c33.6,0.8,41.4,44.4-0.1,51.3
	c-24,2.2-45.6-21.5-47.2-45c0.6-21.3,16.7-32.3,28.6-43.7c19.1-20,25.9-37.4,26.2-63.9c-0.3-9.2-4.8-35.6-22.9-37.2
	c-14.6-0.1-19.9,26.7-20,35.8c0.1,3.9,0.4,7.6,1,11.3c-12.5-2.1-27.9,0.3-41.1,7.8c-1.1,0.6-2.2,1.3-3.3,2c0.7-3.6,1.1-7.7,1.2-12.5
	c-0.3-8.9-4.6-34.2-21.9-35.7c-14-0.1-19.1,25.6-19.2,34.4c0.1,3.8,0.4,7.2,0.9,10.8c0.5,3.3,1.2,6.7,2.2,10.6
	c1.4,5.2,3.3,11.2,6,18.7c-5.1,4.3-17.1,14.8-26.3,27.8c-8.6,9.6-11,18.5-11.5,24.5c0,0.1,0,0.1,0,0.2c-3.6,22,11.3,43,40.5,41.1
	c49.6-6.3,47.9-65.1,13.4-61.8c-32.5,3.8-44.8,44.1-14.3,48.1c-13.9-8.4-10.1-30.8,10.9-33.6c27.1-1.6,25.7,34.1-9.2,42.5
	C52.4,183.5,39.1,165.3,42,146c4.3-17.7,19.3-27.9,30.9-38c8.8-8.2,15.3-15.8,20.3-23.8c0.9-0.9,1.4-1.5,1.4-1.5l0.1-0.2
	c14.5-16.7,37.7-20.3,51.5-16.3c1.4,5.5,3.5,11.9,6.4,19.9c0,0-37,29.8-36.1,62.9c0.8,15.2,9,30.5,22.6,41.1
	c-0.3,0.4-0.7,0.9-1.1,1.4c-4.8,6.1-16.1,20.3-19.4,23.4c-4.1,3.9-8.5,6.2-15.8,5.6c2.6-3.2,4.2-7.2,4.2-11.7
	c0-10-8.1-18.2-18.2-18.2c-10,0-18.2,8.2-18.2,18.2c0,4.7,1.8,9,4.8,12.3c1.9,2.1,4.4,3.8,7.2,4.8c9,3.2,16.3,4.9,22.5,4.9
	c8.2,0,14.6-2.8,20.6-8.5c3.5-3.3,12.3-14.4,20.3-24.5c0.6-0.8,1.2-1.5,1.7-2.1c8.8,4.8,19.1,7.7,30.6,7.9
	C239.2,200.9,221.3,128.5,178.8,129z M67.8,62.1C67.6,51.8,73,36.9,85.4,35.7c4.6,0.1,6.2,5.5,6.5,14.3c-0.6,13.2-4,20.8-9.1,27.1
	c-2.5,3.1-5.3,5.8-8.4,8.6c-0.4,0.3-0.8,0.7-1.2,1.1c-1.2-3.6-2.6-7.5-3.7-12c-0.8-3.3-1.4-7-1.6-11.1
	C67.9,63.1,67.9,62.6,67.8,62.1z M151,55.3c-0.2-11.3,5.7-27.5,19.1-28.9c5,0.1,6.8,6,7.1,15.6c-0.7,14.4-4.4,22.8-9.9,29.5
	c-2.7,3.3-5.8,6.3-9.2,9.4c-0.4,0.4-0.9,0.8-1.3,1.2c-1.3-3.9-2.8-8.2-4-13.1c-0.9-3.6-1.6-7.7-1.8-12.2
	C151.1,56.4,151,55.9,151,55.3z"/>
</svg>
